<svg xmlns="http://www.w3.org/2000/svg" xmlns:xlink="http://www.w3.org/1999/xlink" viewBox="0 0 344 92"><mask id="a" fill="#fff"><path d="m.029469.36318h92.717531v91.13982h-92.717531z" fill="#fff" fill-rule="evenodd"></path></mask><mask id="b" fill="#fff"><path d="m.17075.020834h72.68425v19.027166h-72.68425z" fill="#fff" fill-rule="evenodd"></path></mask><g fill="none" fill-rule="evenodd"><g fill="#17e700"><path d="m92.314 56.558c-3.05.92714-6.2724 1.4793-9.5739 1.6446-10.649.52754-20.075-3.0063-25.706-5.1184-1.2686-.47538-2.3654-.88629-3.216-1.1506-2.1154-.65992-5.3736-1.6107-9.2335-2.274-4.1399-.70913-8.2935-.96749-12.348-.76671-1.1213.055608-2.2534.14714-3.3712.27214 6.4596-5.086 12.515-11.506 18.169-17.653 4.7219-5.1347 9.1815-9.9839 19.323-10.488.17337-.0073817.34822-.015255.52209-.021653l.45431-.015748-.41797-.1806c-2.9105-1.2618-5.7179-1.778-8.8352-1.623-3.2234.16043-6.4782 1.0428-9.9246 1.9773-4.3044 1.1673-9.183 2.4916-15.237 2.7913-1.7175.085627-3.4778.083659-5.243-.0054132.015226-.0014764.030942-.0034448.046168-.0063975 3.6571-.54969 12.222-1.8356 14.353-4.2976l.25638-.29576-.36836.13238c-3.0142 1.0772-7.1585 1.2829-11.166 1.4822-2.9479.14665-5.7317.28444-7.9065.76031-3.881.84692-6.9605 2.3085-9.154 4.3375-1.7853 1.6545-3.0225 3.7253-3.6772 6.1563l-.082513.30658.24557-.19881c2.8059-2.2799 4.1644-3.0909 9.5371-3.964.5324-.086119 1.1051-.14419 1.7514-.17667 1.8752-.093009 4.0323.053148 6.3166.20718 2.7067.18405 5.5057.374 8.3873.22982 3.1085-.15305 5.771-.68207 8.1285-1.6161-3.6232 4.8537-8.9634 8.9431-14.133 12.9-4.7533 3.6377-9.6702 7.4013-13.351 11.806-1.9862 2.3749-3.4577 4.7361-4.5004 7.2173-1.1709 2.7888-1.7716 5.6534-1.8369 8.7576l-.0063849.29428.18811-.22637c4.9159-5.9432 11.488-12.094 22.968-12.663.11689-.0063974.23428-.011811.35264-.01624-3.2524.9857-5.7852 2.027-7.9242 3.2558-2.5559 1.4685-4.5367 3.214-6.0529 5.3379l-.2549.35875.38653-.20816c6.6-3.5452 15.024-5.736 23.72-6.1681 6.1334-.30363 12.28.26476 17.774 1.6461.80204.20226 1.5859.42371 2.3442.63728 1.4734.41633 2.9965.84692 4.7509 1.1594 2.7986.49851 5.8525.68354 8.8293.53591 2.9965-.14763 5.879-.63728 8.3411-1.4133 2.7038-.85135 4.881-2.0236 6.4748-3.4827l.33251-.30462-.4327.13041" mask="url(#a)"></path><path d="m5.8363 41.112c.080548-3.3449.29027-7.0844.58496-10.928.42288-5.5185 1.0206-11.249 1.662-16.328l32.402-7.4919.061393-.014271 32.466 7.5062c.21954 1.7401.43417 3.557.63849 5.4157.1999 1.8213.39046 3.6825.56531 5.551 1.1193 11.938 1.6291 24.177.23329 28.174-.079074.22588-.16895.45816-.26817.69486 1.9292.28296 3.9321.45865 5.9802.4803 1.6075-5.8852.85705-18.985-.13949-29.555-.086933-.92517-.17632-1.8311-.2662-2.711-.7431-7.299-1.5191-12.814-1.5191-12.814l-37.627-8.7005c-.0024557-.014763-.003438-.024606-.0019646-.02805l-.05992.013779-.058446-.013779c.0024557.0034448.0054026.012795.0083494.02559l-37.639 8.703s-5.0819 36.128-1.694 45.827c.97542 2.7917 2.9749 6.0067 5.5514 9.3073.3271-2.3734.95282-4.6465 1.8914-6.8812.040765-.097438.083004-.19389.12524-.29084-.94595-1.4773-1.6645-2.8508-2.0864-4.0579-.73328-2.0989-.94054-6.4747-.8099-11.884" mask="url(#a)"></path><path d="m66.306 64.749c-5.4792 6.0352-12.547 12.176-17.974 15.523-3.825 2.3582-6.2656 3.7947-7.7842 4.6568-.020137-.011318-.041256-.023621-.061884-.035432-1.5206-.86562-3.9469-2.2942-7.7213-4.6214-4.7597-2.9349-10.782-8.0204-15.888-13.298-1.1704 1.1752-2.1812 2.3434-3.0382 3.3803l-.83151 1.0029c5.576 5.7041 11.947 10.932 16.713 13.87 8.0047 4.9364 10.264 6.0338 10.766 6.2537 0 .031495-.0004911.05118-.0004911.05118s.019155-.0068895.062376-.024606c.043221.017716.062376.024606.062376.024606s.0014735-.021653.0029469-.052656c.5103-.2244 2.7789-1.3297 10.762-6.2523 6.3201-3.8965 15.461-11.817 21.829-19.537-1.7588-.092517-3.4832-.28592-5.1487-.58266-.61442-.10925-1.193-.23031-1.7504-.35826" mask="url(#a)"></path></g><g fill="#494b4e"><path d="m213.89 61.406 11.831.018522c.94643 0 .69346.98898.69346.98898 0 .097972-.1636.71797-.1636.71797-.17532.57467-.86536 1.1289-1.9603 1.1289h-11.303l.90199-2.8543zm18.854 5.7019c3.227-1.5339 6.8643-9.9419-2.536-9.9419h-25.767l-.1382.4767s1.6628.82715 1.0475 2.6438h.003419l-4.7751 15.045h8.9159l1.9519-6.1776 37.272 15.091-25.223-15.965s5.9442.17011 9.2484-1.1718z"></path><path d="m131.85 69.076c-.56335 1.915-1.1608 2.7958-2.5383 2.7958h-13.359s2.4583-7.8573 2.2682-7.2832c.52286-1.9002 1.0946-2.9694 2.5235-2.9694h13.395s-2.2223 7.4568-2.2894 7.4568zm3.2942-11.91-15.439.11196c-7.4055 0-8.393.80354-9.4421 3.6925l-3.8556 12.662c-.50015 1.7776.97167 2.5892 2.914 2.5892h25.429c3.0142 0 4.1054-.75825 4.8514-2.7241l3.6122-11.92c1.2546-4.1123-3.5312-4.4116-8.0696-4.4116z"></path><path d="m279.94 17.05h-47.286l-.23818.83807s2.8313 1.4372 1.8274 4.5878l-8.5824 26.667h15.776l6.3611-19.929c.95468-3.1872 1.9108-4.7092 4.3981-4.7092h18.879c2.3184 0 3.1095.9699 2.7049 2.2917l-7.0483 22.346h15.27l7.5579-24.593c1.741-5.6657-4.7817-7.5-9.619-7.5"></path><g transform="translate(270.79 57.166)"><path d="m28.367 5.4759-1.0166 3.335h-14.737l.89793-3.0449c.33803-.89334.84383-1.3238 1.568-1.3238h12.424c1.0493-.040144.86368 1.0336.86368 1.0336zm3.6374-5.4551h-27.92l-.13998.49698s1.6266.83541 1.0895 2.6627l-4.8629 15.868h9.2394l1.987-6.3078h14.747l-1.9274 6.3078h8.9997l4.445-14.581c.58075-2.085-.098778-4.4464-5.6571-4.4464z" mask="url(#b)"></path><path d="m63.448 9.627c-.8885 2.583-1.7636 4.9749-6.2423 4.9749h-10.377s2.5672-8.4812 2.6352-8.4812c.44673-1.307.49786-1.6637 1.8043-1.6637h9.2533c3.0825 0 3.8141 2.5875 2.9261 5.17zm.78426-9.6062h-24.082l-.13998.49698s1.5705.80695 1.1143 2.5698l-4.9294 15.961h22.792c8.1961 0 11.952-4.0912 13.353-8.5599 1.4003-4.4687.3286-10.468-8.1077-10.468z" mask="url(#b)"></path></g><path d="m153.84 63.25c.35782-1.1043 1.2426-1.6565 2.6558-1.6565h14.639l1.3671-4.427h-28.067l-.14202.49771s1.6511.83918 1.0996 2.6753l-4.9834 15.882h9.3476l2.3201-7.4559s9.9789-.010687 10.134-.025954c.5144-1.6794.93898-3.0509 1.2732-4.117h-10.104l.46121-1.373"></path><path d="m188.55 6.0175-34.86 11.1695h-37.17l-2.32 7.386h28.86l-35.69 21.16-1.06 3.41h51.09l2.29-7.344h-23.96z"></path><path d="m208.45 37.108c-.97435 3.2249-2.0084 4.7092-4.3902 4.7092h-22.896s4.252-13.234 3.9236-12.267c.90422-3.2006 1.8929-5.0006 4.365-5.0006h23.169s-4.0554 12.558-4.1715 12.558zm5.9088-20.058h-32.243l-11.09 7.4578-6.373 20.275c-.86521 2.9929 1.68 4.3603 5.0401 4.3603h43.985c5.2135 0 7.1009-1.2777 8.3918-4.5883l6.2476-20.075c2.1704-6.9256-6.1083-7.4296-13.959-7.4296z"></path><path d="m261.03 69.076c-.56694 1.915-1.1687 2.7959-2.5544 2.7959h-13.321s2.4744-7.8575 2.2826-7.2834c.52669-1.9002 1.1016-2.9695 2.54-2.9695h13.48s-2.3597 7.457-2.4267 7.457zm3.4379-11.91h-15.537c-7.4526 0-8.4976 1.198-9.0128 2.2799l-4.2329 13.742 4.6696 3.0331h23.717c3.0329 0 4.1315-.75776 4.8823-2.7237l3.6346-11.92c1.2626-4.1125-3.5537-4.4117-8.1209-4.4117z"></path><path d="m297.77 17.05h-3.2567l-.23734.83807s2.7183 1.3907 1.8628 4.4297l-8.307 26.826h46.606l2.2158-7.3637h-27.883c-1.1128 0-1.7402-.52385-1.8827-1.5701v-.17445c0-.58134-.10019-1.3575.81222-3.4499h17.949c.85794-2.8368 1.5675-5.1642 2.1268-6.9766h-17.85l.76796-2.3125c.59871-1.86 2.0821-2.7907 4.4502-2.7907h25.489l2.3598-7.4554h-45.222"></path><path d="m186.58 61.593h14.638l1.367-4.427h-28.067l-.14202.49771s1.6511.83918 1.0996 2.6753l-4.9839 15.882h9.3475l2.3206-7.4559s9.9788-.010687 10.133-.025954c.5144-1.6794.93896-3.0509 1.2732-4.117h-10.104l.4612-1.373c.35782-1.1043 1.2421-1.6565 2.6558-1.6565"></path></g></g></svg>